<svg width="24" height="24" viewBox="0 0 24 24" fill="none" xmlns="http://www.w3.org/2000/svg">
<mask id="path-1-inside-1_1_2335" fill="white">
<path fill-rule="evenodd" clip-rule="evenodd" d="M11.47 7.71983C11.6107 7.57938 11.8013 7.50049 12 7.50049C12.1988 7.50049 12.3894 7.57938 12.53 7.71983L20.03 15.2198C20.1037 15.2885 20.1628 15.3713 20.2038 15.4633C20.2448 15.5553 20.2668 15.6546 20.2686 15.7553C20.2704 15.856 20.2519 15.956 20.2142 16.0494C20.1764 16.1428 20.1203 16.2276 20.0491 16.2989C19.9778 16.3701 19.893 16.4262 19.7996 16.464C19.7062 16.5017 19.6062 16.5202 19.5055 16.5184C19.4048 16.5166 19.3055 16.4946 19.2135 16.4536C19.1215 16.4126 19.0387 16.3535 18.97 16.2798L12 9.30983L5.03003 16.2798C4.96137 16.3535 4.87857 16.4126 4.78657 16.4536C4.69457 16.4946 4.59525 16.5166 4.49455 16.5184C4.39385 16.5202 4.29382 16.5017 4.20043 16.464C4.10704 16.4262 4.02221 16.3701 3.95099 16.2989C3.87977 16.2276 3.82363 16.1428 3.78591 16.0494C3.74818 15.956 3.72966 15.856 3.73144 15.7553C3.73321 15.6546 3.75525 15.5553 3.79625 15.4633C3.83724 15.3713 3.89634 15.2885 3.97003 15.2198L11.47 7.71983Z"/>
</mask>
<path fill-rule="evenodd" clip-rule="evenodd" d="M11.47 7.71983C11.6107 7.57938 11.8013 7.50049 12 7.50049C12.1988 7.50049 12.3894 7.57938 12.53 7.71983L20.03 15.2198C20.1037 15.2885 20.1628 15.3713 20.2038 15.4633C20.2448 15.5553 20.2668 15.6546 20.2686 15.7553C20.2704 15.856 20.2519 15.956 20.2142 16.0494C20.1764 16.1428 20.1203 16.2276 20.0491 16.2989C19.9778 16.3701 19.893 16.4262 19.7996 16.464C19.7062 16.5017 19.6062 16.5202 19.5055 16.5184C19.4048 16.5166 19.3055 16.4946 19.2135 16.4536C19.1215 16.4126 19.0387 16.3535 18.97 16.2798L12 9.30983L5.03003 16.2798C4.96137 16.3535 4.87857 16.4126 4.78657 16.4536C4.69457 16.4946 4.59525 16.5166 4.49455 16.5184C4.39385 16.5202 4.29382 16.5017 4.20043 16.464C4.10704 16.4262 4.02221 16.3701 3.95099 16.2989C3.87977 16.2276 3.82363 16.1428 3.78591 16.0494C3.74818 15.956 3.72966 15.856 3.73144 15.7553C3.73321 15.6546 3.75525 15.5553 3.79625 15.4633C3.83724 15.3713 3.89634 15.2885 3.97003 15.2198L11.47 7.71983Z" fill="white"/>
<path d="M11.47 7.71983L10.41 6.65851L10.4094 6.65917L11.47 7.71983ZM12 7.50049L12 9.00049L12 7.50049ZM12.53 7.71983L13.5907 6.65917L13.59 6.65851L12.53 7.71983ZM20.03 15.2198L18.9694 16.2805L18.9881 16.2992L19.0074 16.3172L20.03 15.2198ZM18.97 16.2798L20.0674 15.2572L20.0494 15.2379L20.0307 15.2192L18.97 16.2798ZM12 9.30983L13.0607 8.24917L12 7.18851L10.9394 8.24917L12 9.30983ZM5.03003 16.2798L3.96937 15.2192L3.95065 15.2379L3.93261 15.2572L5.03003 16.2798ZM3.97003 15.2198L4.99261 16.3172L5.01197 16.2992L5.03069 16.2805L3.97003 15.2198ZM12.53 8.78115C12.3894 8.9216 12.1988 9.00049 12 9.00049L12 6.00049C11.4038 6.00049 10.8319 6.23716 10.41 6.65851L12.53 8.78115ZM12 9.00049C11.8013 9.00049 11.6107 8.9216 11.47 8.78115L13.59 6.65851C13.1682 6.23716 12.5963 6.00049 12 6.00049L12 9.00049ZM11.4694 8.78049L18.9694 16.2805L21.0907 14.1592L13.5907 6.65917L11.4694 8.78049ZM19.0074 16.3172C18.9338 16.2486 18.8747 16.1658 18.8337 16.0738L21.574 14.8528C21.451 14.5768 21.2737 14.3284 21.0526 14.1224L19.0074 16.3172ZM18.8337 16.0738C18.7927 15.9818 18.7706 15.8825 18.7689 15.7818L21.7684 15.7288C21.7631 15.4267 21.6969 15.1288 21.574 14.8528L18.8337 16.0738ZM18.7689 15.7818C18.7671 15.6811 18.7856 15.581 18.8233 15.4876L21.605 16.6112C21.7181 16.331 21.7737 16.031 21.7684 15.7288L18.7689 15.7818ZM18.8233 15.4876C18.861 15.3943 18.9172 15.3094 18.9884 15.2382L21.1097 17.3595C21.3234 17.1459 21.4918 16.8914 21.605 16.6112L18.8233 15.4876ZM18.9884 15.2382C19.0596 15.167 19.1445 15.1108 19.2378 15.0731L20.3614 17.8548C20.6416 17.7416 20.8961 17.5732 21.1097 17.3595L18.9884 15.2382ZM19.2378 15.0731C19.3312 15.0354 19.4313 15.0169 19.532 15.0187L19.479 18.0182C19.7811 18.0235 20.0812 17.9679 20.3614 17.8548L19.2378 15.0731ZM19.532 15.0187C19.6327 15.0204 19.732 15.0425 19.824 15.0835L18.603 17.8238C18.879 17.9467 19.1769 18.0129 19.479 18.0182L19.532 15.0187ZM19.824 15.0835C19.916 15.1245 19.9988 15.1836 20.0674 15.2572L17.8726 17.3024C18.0786 17.5235 18.327 17.7008 18.603 17.8238L19.824 15.0835ZM20.0307 15.2192L13.0607 8.24917L10.9394 10.3705L17.9094 17.3405L20.0307 15.2192ZM10.9394 8.24917L3.96937 15.2192L6.09069 17.3405L13.0607 10.3705L10.9394 8.24917ZM3.93261 15.2572C4.00128 15.1836 4.08408 15.1245 4.17607 15.0835L5.39706 17.8238C5.67306 17.7008 5.92146 17.5235 6.12745 17.3024L3.93261 15.2572ZM4.17607 15.0835C4.26809 15.0425 4.3674 15.0204 4.46809 15.0187L4.52101 18.0182C4.82311 18.0129 5.12105 17.9467 5.39706 17.8238L4.17607 15.0835ZM4.46809 15.0187C4.56879 15.0169 4.66882 15.0354 4.76221 15.0731L3.63865 17.8548C3.91882 17.9679 4.21891 18.0235 4.52101 18.0182L4.46809 15.0187ZM4.76221 15.0731C4.8556 15.1108 4.94043 15.167 5.01165 15.2382L2.89033 17.3595C3.10398 17.5732 3.35849 17.7416 3.63865 17.8548L4.76221 15.0731ZM5.01165 15.2382C5.08287 15.3094 5.13901 15.3943 5.17673 15.4876L2.39508 16.6112C2.50824 16.8914 2.67668 17.1459 2.89033 17.3595L5.01165 15.2382ZM5.17673 15.4876C5.21446 15.581 5.23298 15.6811 5.2312 15.7818L2.23167 15.7288C2.22634 16.0309 2.28191 16.331 2.39508 16.6112L5.17673 15.4876ZM5.2312 15.7818C5.22943 15.8825 5.20739 15.9818 5.16639 16.0738L2.4261 14.8528C2.30312 15.1288 2.237 15.4267 2.23167 15.7288L5.2312 15.7818ZM5.16639 16.0738C5.1254 16.1658 5.0663 16.2486 4.99261 16.3172L2.94744 14.1224C2.72638 14.3284 2.54908 14.5768 2.4261 14.8528L5.16639 16.0738ZM5.03069 16.2805L12.5307 8.78049L10.4094 6.65917L2.90937 14.1592L5.03069 16.2805Z" fill="white" mask="url(#path-1-inside-1_1_2335)"/>
</svg>
