<svg width="20" height="20" viewBox="0 0 20 20" fill="none" xmlns="http://www.w3.org/2000/svg">
<path fill-rule="evenodd" clip-rule="evenodd" d="M3.46875 9.99999C3.46875 9.84252 3.53131 9.6915 3.64266 9.58015C3.75401 9.4688 3.90503 9.40624 4.0625 9.40624H14.5046L10.1742 5.07582C10.0693 4.96327 10.0122 4.8144 10.0149 4.66058C10.0176 4.50675 10.0799 4.35999 10.1887 4.25121C10.2975 4.14242 10.4443 4.08011 10.5981 4.07739C10.7519 4.07468 10.9008 4.13178 11.0133 4.23666L16.3571 9.58041C16.4683 9.69174 16.5307 9.84265 16.5307 9.99999C16.5307 10.1573 16.4683 10.3082 16.3571 10.4196L11.0133 15.7633C10.959 15.8217 10.8934 15.8684 10.8206 15.9009C10.7478 15.9334 10.6691 15.9508 10.5894 15.9522C10.5097 15.9536 10.4305 15.9389 10.3566 15.9091C10.2826 15.8792 10.2155 15.8348 10.1591 15.7784C10.1027 15.722 10.0583 15.6549 10.0284 15.5809C9.99854 15.507 9.98387 15.4278 9.98528 15.3481C9.98669 15.2684 10.0041 15.1897 10.0366 15.1169C10.069 15.0441 10.1158 14.9785 10.1742 14.9242L14.5046 10.5937H4.0625C3.90503 10.5937 3.75401 10.5312 3.64266 10.4198C3.53131 10.3085 3.46875 10.1575 3.46875 9.99999Z" fill="white"/>
</svg>
