<svg width="48" height="48" viewBox="0 0 48 48" fill="none" xmlns="http://www.w3.org/2000/svg">
<path d="M16.5 37.5C16.5 38.2956 16.1839 39.0587 15.6213 39.6213C15.0587 40.1839 14.2957 40.5 13.5 40.5C12.7044 40.5 11.9413 40.1839 11.3787 39.6213C10.8161 39.0587 10.5 38.2956 10.5 37.5M16.5 37.5C16.5 36.7043 16.1839 35.9413 15.6213 35.3787C15.0587 34.8161 14.2957 34.5 13.5 34.5C12.7044 34.5 11.9413 34.8161 11.3787 35.3787C10.8161 35.9413 10.5 36.7043 10.5 37.5M16.5 37.5H28.5M10.5 37.5H6.75001C6.15327 37.5 5.58097 37.2629 5.15902 36.841C4.73706 36.419 4.50001 35.8467 4.50001 35.25V28.5M28.5 37.5H33M28.5 37.5V28.5M4.50001 28.5V13.23C4.49683 12.6823 4.69693 12.153 5.06158 11.7443C5.42624 11.3357 5.92951 11.0769 6.47401 11.018C13.1401 10.326 19.8599 10.326 26.526 11.018C27.656 11.134 28.5 12.094 28.5 13.23V15.146M4.50001 28.5H28.5M39 37.5C39 38.2956 38.6839 39.0587 38.1213 39.6213C37.5587 40.1839 36.7957 40.5 36 40.5C35.2044 40.5 34.4413 40.1839 33.8787 39.6213C33.3161 39.0587 33 38.2956 33 37.5M39 37.5C39 36.7043 38.6839 35.9413 38.1213 35.3787C37.5587 34.8161 36.7957 34.5 36 34.5C35.2044 34.5 34.4413 34.8161 33.8787 35.3787C33.3161 35.9413 33 36.7043 33 37.5M39 37.5H41.25C42.492 37.5 43.508 36.492 43.43 35.252C43.0281 28.6473 40.8038 22.2831 37.004 16.866C36.6421 16.3585 36.1695 15.94 35.6221 15.642C35.0747 15.3441 34.4666 15.1744 33.844 15.146H28.5M28.5 15.146V28.5" stroke="#2C2929" stroke-width="2" stroke-linecap="round" stroke-linejoin="round"/>
</svg>
