<svg width="20" height="20" viewBox="0 0 20 20" fill="none" xmlns="http://www.w3.org/2000/svg">
<path fill-rule="evenodd" clip-rule="evenodd" d="M3 1.75C2.66848 1.75 2.35054 1.8817 2.11612 2.11612C1.8817 2.35054 1.75 2.66848 1.75 3V17.1893L4.46967 14.4697C4.61032 14.329 4.80109 14.25 5 14.25H17C17.3315 14.25 17.6495 14.1183 17.8839 13.8839C18.1183 13.6495 18.25 13.3315 18.25 13V3C18.25 2.66848 18.1183 2.35054 17.8839 2.11612C17.6495 1.8817 17.3315 1.75 17 1.75H3ZM1.05546 1.05546C1.57118 0.539731 2.27065 0.25 3 0.25H17C17.7293 0.25 18.4288 0.539731 18.9445 1.05546C19.4603 1.57118 19.75 2.27065 19.75 3V13C19.75 13.7293 19.4603 14.4288 18.9445 14.9445C18.4288 15.4603 17.7293 15.75 17 15.75H5.31066L1.53033 19.5303C1.31583 19.7448 0.993243 19.809 0.712987 19.6929C0.432732 19.5768 0.25 19.3033 0.25 19V3C0.25 2.27065 0.539731 1.57118 1.05546 1.05546Z" fill="#2C2929"/>
</svg>
