<svg width="18" height="18" viewBox="0 0 18 18" fill="none" xmlns="http://www.w3.org/2000/svg">
<path fill-rule="evenodd" clip-rule="evenodd" d="M9 1.75C7.07718 1.75 5.23311 2.51384 3.87348 3.87348C2.51384 5.23311 1.75 7.07718 1.75 9C1.75 9.95208 1.93753 10.8948 2.30187 11.7745C2.66622 12.6541 3.20025 13.4533 3.87348 14.1265C4.5467 14.7997 5.34594 15.3338 6.22554 15.6981C7.10516 16.0625 8.04792 16.25 9 16.25C9.95208 16.25 10.8948 16.0625 11.7745 15.6981C12.6541 15.3338 13.4533 14.7997 14.1265 14.1265C14.7997 13.4533 15.3338 12.6541 15.6981 11.7745C16.0625 10.8948 16.25 9.95208 16.25 9C16.25 7.07718 15.4862 5.23311 14.1265 3.87348C12.7669 2.51384 10.9228 1.75 9 1.75ZM2.81282 2.81282C4.45376 1.17187 6.67936 0.25 9 0.25C11.3206 0.25 13.5462 1.17187 15.1872 2.81282C16.8281 4.45376 17.75 6.67936 17.75 9C17.75 10.1491 17.5237 11.2869 17.0839 12.3485C16.6442 13.4101 15.9997 14.3747 15.1872 15.1872C14.3747 15.9997 13.4101 16.6442 12.3485 17.0839C11.2869 17.5237 10.1491 17.75 9 17.75C7.85093 17.75 6.71312 17.5237 5.65152 17.0839C4.58992 16.6442 3.62533 15.9997 2.81282 15.1872C2.0003 14.3747 1.35578 13.4101 0.916054 12.3485C0.476325 11.2869 0.25 10.1491 0.25 9C0.25 6.67936 1.17187 4.45376 2.81282 2.81282ZM12.1026 6.3897C12.4397 6.63046 12.5177 7.09887 12.277 7.43593L8.94363 12.1026C8.81549 12.282 8.61491 12.3959 8.39519 12.4141C8.17548 12.4323 7.9589 12.3529 7.803 12.197L5.803 10.197C5.51011 9.9041 5.51011 9.42923 5.803 9.13634C6.0959 8.84344 6.57077 8.84344 6.86366 9.13634L8.23763 10.5103L11.0564 6.56407C11.2971 6.22701 11.7655 6.14894 12.1026 6.3897Z" fill="#2C2929"/>
</svg>
