<svg width="20" height="20" viewBox="0 0 20 20" fill="none" xmlns="http://www.w3.org/2000/svg">
<path d="M15.982 16.7252C15.2833 15.8001 14.3793 15.0498 13.3412 14.5336C12.3031 14.0173 11.1594 13.7491 10 13.7502C8.84066 13.7491 7.6969 14.0173 6.65883 14.5336C5.62077 15.0498 4.71675 15.8001 4.01801 16.7252M15.982 16.7252C17.3455 15.5124 18.3071 13.9137 18.7412 12.1413C19.1753 10.3688 19.0603 8.50628 18.4115 6.80067C17.7627 5.09506 16.6107 3.62697 15.1084 2.59109C13.6061 1.55521 11.8244 1.00049 9.99951 1.00049C8.17467 1.00049 6.39295 1.55521 4.89062 2.59109C3.38829 3.62697 2.23634 5.09506 1.58755 6.80067C0.938753 8.50628 0.823765 10.3688 1.25783 12.1413C1.6919 13.9137 2.65451 15.5124 4.01801 16.7252M15.982 16.7252C14.336 18.1934 12.2056 19.0033 10 19.0002C7.79404 19.0036 5.66425 18.1936 4.01801 16.7252M13 7.75019C13 8.54584 12.6839 9.30891 12.1213 9.87151C11.5587 10.4341 10.7957 10.7502 10 10.7502C9.20436 10.7502 8.4413 10.4341 7.87869 9.87151C7.31608 9.30891 7.00001 8.54584 7.00001 7.75019C7.00001 6.95454 7.31608 6.19148 7.87869 5.62887C8.4413 5.06626 9.20436 4.75019 10 4.75019C10.7957 4.75019 11.5587 5.06626 12.1213 5.62887C12.6839 6.19148 13 6.95454 13 7.75019Z" stroke="#2C2929" stroke-width="1.5" stroke-linecap="round" stroke-linejoin="round"/>
</svg>
