<svg width="22" height="20" viewBox="0 0 22 20" fill="none" xmlns="http://www.w3.org/2000/svg">
<path fill-rule="evenodd" clip-rule="evenodd" d="M0.321915 0.60791H11.1095C18.44 0.60791 21.2569 4.73184 21.2569 9.94448C21.2569 16.1799 17.3196 19.3141 11.1095 19.3141H0.321915V0.60791ZM1.34617 1.72962V18.2583H11.1094C16.9994 18.2583 20.2005 15.4211 20.2005 9.97748C20.2005 4.36893 16.7433 1.72962 11.1094 1.72962H1.34617ZM4.2272 10.2744C5.30562 10.2744 6.17985 9.37336 6.17985 8.2619C6.17985 7.15044 5.30562 6.24942 4.2272 6.24942C3.14878 6.24942 2.27455 7.15044 2.27455 8.2619C2.27455 9.37336 3.14878 10.2744 4.2272 10.2744ZM2.65876 11.1322H5.79582V16.8727H2.65876V11.1322Z" fill="black"/>
<path fill-rule="evenodd" clip-rule="evenodd" d="M16.6474 6.41438H17.5437V9.18566H18.8561C18.504 4.13797 14.6307 3.01627 11.1095 3.01627H7.36428V6.41438H7.90846C8.9328 6.41438 9.54101 7.1072 9.54101 8.2619C9.54101 9.4166 8.9328 10.1094 7.94047 10.1094H7.36428V16.8727H11.1095C16.8394 16.8727 18.7921 14.1344 18.8881 10.1094H16.6474V6.41438ZM12.3259 9.18566V10.1094H10.0852V6.41438H12.2619V7.33814H10.9815V7.76703H12.1979V8.69079H11.0135V9.18566H12.3259ZM12.71 10.1094L13.7983 6.41438H15.0788L16.1671 10.1094H15.2388L15.0468 9.4166H13.8624L13.6703 10.1094H12.71ZM14.1285 8.45984H14.1185V8.49284L14.1285 8.45984ZM14.1285 8.45984H14.7587L14.4706 7.43711H14.4386L14.1285 8.45984ZM7.36427 9.18567V7.33815H7.90845C8.26057 7.33815 8.6447 7.43712 8.6447 8.26191C8.6447 9.08669 8.29258 9.18567 7.90845 9.18567H7.36427Z" fill="#D50072"/>
</svg>
