<svg width="30" height="19" viewBox="0 0 30 19" fill="none" xmlns="http://www.w3.org/2000/svg">
<path d="M17.6768 9.60767C17.6768 14.5456 13.7197 18.5487 8.83841 18.5487C3.95709 18.5487 0 14.5456 0 9.60767C0 4.66968 3.95709 0.666656 8.83841 0.666656C13.7197 0.666656 17.6768 4.66968 17.6768 9.60767Z" fill="#ED0006"/>
<path d="M29.1429 9.60767C29.1429 14.5456 25.1858 18.5487 20.3044 18.5487C15.4231 18.5487 11.466 14.5456 11.466 9.60767C11.466 4.66968 15.4231 0.666656 20.3044 0.666656C25.1858 0.666656 29.1429 4.66968 29.1429 9.60767Z" fill="#0099DF"/>
<path fill-rule="evenodd" clip-rule="evenodd" d="M14.5715 2.80258C16.4718 4.44253 17.6768 6.88274 17.6768 9.60767C17.6768 12.3326 16.4718 14.7728 14.5715 16.4128C12.6711 14.7728 11.4661 12.3326 11.4661 9.60767C11.4661 6.88274 12.6711 4.44253 14.5715 2.80258Z" fill="#6C6BBD"/>
</svg>
