<svg width="15" height="19" viewBox="0 0 15 19" fill="none" xmlns="http://www.w3.org/2000/svg">
<path fill-rule="evenodd" clip-rule="evenodd" d="M4.48559 17.5977L4.77989 15.6655L4.1243 15.6497H0.993715L3.16936 1.39158C3.17614 1.3484 3.19805 1.30832 3.23005 1.27981C3.2622 1.2513 3.30319 1.23566 3.34606 1.23566H8.6247C10.3773 1.23566 11.5866 1.61251 12.2179 2.35643C12.514 2.70541 12.7025 3.07021 12.7938 3.47149C12.8894 3.89266 12.891 4.39577 12.7977 5.00952L12.7909 5.05416V5.44746L13.087 5.62082C13.3362 5.75751 13.5343 5.91392 13.6863 6.09298C13.9394 6.39146 14.1032 6.77075 14.1724 7.22026C14.244 7.68265 14.2203 8.23301 14.1032 8.85604C13.9681 9.57259 13.7498 10.1968 13.4549 10.7074C13.1837 11.1779 12.8382 11.5683 12.4279 11.8707C12.0362 12.1581 11.5709 12.3762 11.0447 12.5159C10.5347 12.653 9.95339 12.7223 9.31576 12.7223H8.90497C8.6113 12.7223 8.32599 12.8316 8.10199 13.0276C7.87737 13.2277 7.72888 13.5011 7.68332 13.8L7.65227 13.974L7.13224 17.3797L7.10875 17.5047C7.10245 17.5443 7.09173 17.564 7.07596 17.5773C7.06193 17.5895 7.04176 17.5977 7.02205 17.5977H4.48559Z" fill="#28356A"/>
<path fill-rule="evenodd" clip-rule="evenodd" d="M13.3675 5.09958C13.3519 5.20369 13.3338 5.31008 13.3136 5.4194C12.6175 9.11359 10.2358 10.3898 7.19417 10.3898H5.64543C5.27342 10.3898 4.95988 10.6689 4.90203 11.0482L3.88451 17.7192C3.84684 17.9683 4.03253 18.1927 4.2756 18.1927H7.02251C7.3477 18.1927 7.62403 17.9484 7.67526 17.6169L7.70222 17.4727L8.21941 14.0804L8.25267 13.8943C8.30327 13.5616 8.58023 13.3173 8.90543 13.3173H9.31622C11.9775 13.3173 14.061 12.2006 14.6699 8.96875C14.9242 7.61874 14.7925 6.49146 14.1194 5.69866C13.9158 5.45965 13.6631 5.2612 13.3675 5.09958Z" fill="#298FC2"/>
<path fill-rule="evenodd" clip-rule="evenodd" d="M12.639 4.7995C12.5326 4.7674 12.4229 4.7384 12.3103 4.71217C12.1971 4.68659 12.0813 4.66394 11.962 4.64407C11.5444 4.57433 11.0868 4.54126 10.5967 4.54126H6.45932C6.35734 4.54126 6.26055 4.56505 6.17401 4.60806C5.98312 4.70288 5.8414 4.8896 5.80704 5.11818L4.92682 10.8802L4.9016 11.0482C4.95945 10.6689 5.27298 10.3898 5.64499 10.3898H7.19373C10.2354 10.3898 12.6171 9.11297 13.3132 5.41943C13.334 5.31011 13.3515 5.20372 13.3671 5.09961C13.191 5.00299 13.0003 4.92039 12.7949 4.85C12.7441 4.83257 12.6918 4.81579 12.639 4.7995Z" fill="#22284F"/>
<path fill-rule="evenodd" clip-rule="evenodd" d="M5.80728 5.1182C5.84164 4.88962 5.98335 4.70291 6.17425 4.60873C6.26142 4.56556 6.35757 4.54177 6.45956 4.54177H10.5969C11.087 4.54177 11.5446 4.57501 11.9622 4.64474C12.0815 4.66445 12.1974 4.68726 12.3106 4.71284C12.4231 4.73891 12.5328 4.76808 12.6392 4.80001C12.692 4.8163 12.7444 4.83325 12.7956 4.85003C13.001 4.92041 13.1919 5.00367 13.368 5.09963C13.5751 3.73447 13.3662 2.80498 12.6522 1.9633C11.8648 1.03658 10.4439 0.640015 8.62559 0.640015H3.34679C2.97541 0.640015 2.65857 0.919107 2.60119 1.29905L0.402533 15.7038C0.359184 15.9888 0.57183 16.2459 0.849894 16.2459H4.10879L5.80728 5.1182Z" fill="#28356A"/>
</svg>
