<svg width="30" height="20" viewBox="0 0 30 20" fill="none" xmlns="http://www.w3.org/2000/svg">
<path d="M6.0245 0.667419H13.1687C14.166 0.667419 14.7863 1.50419 14.5536 2.5342L11.2275 17.2347C10.9927 18.2611 9.99426 19.0986 8.99629 19.0986H1.85274C0.856861 19.0986 0.235199 18.2611 0.467843 17.2347L3.79539 2.5342C4.02804 1.50419 5.02601 0.667419 6.0245 0.667419Z" fill="#E21836"/>
<path d="M12.5739 0.666656H20.7896C21.7866 0.666656 21.337 1.50343 21.1025 2.53344L17.7768 17.2339C17.5435 18.2604 17.6163 19.0978 16.6171 19.0978H8.4014C7.40221 19.0978 6.78386 18.2604 7.01859 17.2339L10.3441 2.53344C10.5802 1.50343 11.5761 0.666656 12.5739 0.666656Z" fill="#00447C"/>
<path d="M20.4638 0.666656H27.6081C28.6067 0.666656 29.227 1.50343 28.9924 2.53344L25.6668 17.2339C25.4321 18.2604 24.4329 19.0978 23.4344 19.0978H16.2935C15.2943 19.0978 14.6745 18.2604 14.9086 17.2339L18.2347 2.53344C18.4674 1.50343 19.4646 0.666656 20.4638 0.666656Z" fill="#007B84"/>
<path d="M7.88997 5.3777C7.15529 5.38541 6.93832 5.3777 6.86901 5.36085C6.84237 5.49117 6.34661 7.84535 6.34522 7.84732C6.23847 8.32361 6.16081 8.66312 5.89699 8.88235C5.74724 9.0098 5.5724 9.07129 5.36971 9.07129C5.0439 9.07129 4.8541 8.90476 4.82223 8.58891L4.81614 8.48046C4.81614 8.48046 4.91539 7.84248 4.91539 7.8389C4.91539 7.8389 5.43571 5.69355 5.52887 5.40997C5.53375 5.39383 5.53514 5.38541 5.53636 5.3777C4.52359 5.38684 4.34405 5.3777 4.33169 5.36085C4.3249 5.38398 4.29982 5.51698 4.29982 5.51698L3.76854 7.93498L3.72291 8.14005L3.63463 8.81083C3.63463 9.0098 3.67259 9.17221 3.74816 9.30952C3.99021 9.74493 4.68066 9.81018 5.07124 9.81018C5.57449 9.81018 6.04657 9.70012 6.36559 9.49917C6.91934 9.16235 7.06422 8.63587 7.19343 8.16801L7.25333 7.92799C7.25333 7.92799 7.78932 5.69983 7.88039 5.40997C7.88387 5.39383 7.88527 5.38541 7.88997 5.3777ZM9.71363 7.17518C9.58443 7.17518 9.3483 7.20745 9.1362 7.31446C9.05923 7.35515 8.98644 7.40212 8.90965 7.44891L8.97896 7.19131L8.941 7.14793C8.49121 7.24169 8.39055 7.25423 7.97507 7.31446L7.94024 7.3383C7.89201 7.75006 7.84917 8.05963 7.67033 8.86898C7.60224 9.16726 7.53155 9.46841 7.46067 9.76598L7.47983 9.8038C7.90559 9.78068 8.0348 9.78068 8.40483 9.78695L8.43479 9.75343C8.4818 9.50552 8.4879 9.44744 8.59203 8.94534C8.64096 8.70729 8.743 8.18422 8.79333 7.99797C8.8858 7.95387 8.97704 7.91049 9.06411 7.91049C9.2715 7.91049 9.24625 8.09674 9.23825 8.17095C9.22936 8.29554 9.15379 8.70245 9.0763 9.05182L9.02458 9.27733C8.98854 9.44385 8.94901 9.60572 8.91296 9.77082L8.92863 9.8038C9.3483 9.78068 9.47629 9.78068 9.83466 9.78695L9.8768 9.75343C9.94158 9.36624 9.96056 9.26263 10.0755 8.69886L10.1333 8.43984C10.2456 7.9329 10.302 7.67585 10.2171 7.46647C10.1272 7.23183 9.91163 7.17518 9.71363 7.17518ZM11.7509 7.70594C11.5278 7.75004 11.3855 7.77944 11.2441 7.79844C11.104 7.82156 10.9673 7.84254 10.7517 7.87337L10.7346 7.88932L10.719 7.90205C10.6965 8.06732 10.6808 8.21019 10.651 8.37816C10.6258 8.55186 10.587 8.74922 10.5237 9.0328C10.4748 9.24988 10.4496 9.32553 10.4217 9.40189C10.3945 9.47825 10.3646 9.55247 10.3096 9.76596L10.3224 9.78568L10.3332 9.80378C10.5347 9.79393 10.6665 9.78693 10.802 9.78568C10.9373 9.78066 11.0775 9.78568 11.2945 9.78693L11.3134 9.77098L11.3338 9.75341C11.3652 9.56089 11.3699 9.50909 11.389 9.41516C11.408 9.31441 11.4407 9.17495 11.521 8.80246C11.559 8.6275 11.6013 8.45308 11.6406 8.27454C11.6816 8.09672 11.7244 7.92159 11.7652 7.74663L11.7591 7.72548L11.7509 7.70594ZM11.7556 6.99031C11.5529 6.86716 11.1972 6.90624 10.9577 7.07636C10.719 7.24307 10.6918 7.47968 10.8938 7.60445C11.093 7.72419 11.4502 7.68852 11.6875 7.51697C11.9258 7.34668 11.9555 7.11221 11.7556 6.99031ZM12.9815 9.84238C13.3915 9.84238 13.8119 9.72604 14.1283 9.38079C14.3717 9.10079 14.4834 8.6842 14.522 8.51265C14.6479 7.94405 14.5499 7.67857 14.4268 7.51688C14.2398 7.2704 13.9092 7.19135 13.5664 7.19135C13.3602 7.19135 12.8691 7.21232 12.4855 7.57639C12.21 7.839 12.0827 8.19537 12.0059 8.53703C11.9285 8.88515 11.8393 9.51183 12.3991 9.74504C12.5719 9.82141 12.8209 9.84238 12.9815 9.84238ZM12.9494 8.56302C13.044 8.13245 13.1556 7.77107 13.4405 7.77107C13.6637 7.77107 13.6799 8.03995 13.5807 8.47196C13.5629 8.56786 13.4814 8.9244 13.3712 9.07624C13.2942 9.18827 13.2031 9.25621 13.1025 9.25621C13.0725 9.25621 12.8944 9.25621 12.8916 8.98392C12.8902 8.84948 12.9168 8.71216 12.9494 8.56302ZM15.5472 9.78701L15.5792 9.75349C15.6247 9.50557 15.6321 9.44731 15.7328 8.9454C15.7831 8.70734 15.8872 8.18427 15.9362 7.99802C16.0288 7.95375 16.1185 7.91037 16.2084 7.91037C16.4144 7.91037 16.3893 8.09661 16.3811 8.17083C16.3736 8.29559 16.298 8.70232 16.2191 9.0517L16.1702 9.2772C16.1328 9.44391 16.092 9.6056 16.056 9.77087L16.0717 9.80386C16.4927 9.78073 16.6158 9.78073 16.9763 9.78701L17.0198 9.75349C17.083 9.36611 17.1001 9.2625 17.2185 8.69892L17.2749 8.43971C17.3878 7.93277 17.4449 7.6759 17.3613 7.46653C17.2688 7.23188 17.0519 7.17523 16.8567 7.17523C16.7273 7.17523 16.4899 7.20732 16.2791 7.31452C16.2037 7.35521 16.1281 7.40199 16.0539 7.44896L16.1185 7.19137L16.0838 7.14781C15.6342 7.24174 15.5315 7.25429 15.1165 7.31452L15.0847 7.33836C15.0343 7.75011 14.9934 8.05951 14.8146 8.86903C14.7465 9.16732 14.6758 9.46847 14.6051 9.76603L14.6241 9.80386C15.0505 9.78073 15.1778 9.78073 15.5472 9.78701ZM18.6408 9.80377C18.6672 9.67076 18.8245 8.88239 18.8259 8.88239C18.8259 8.88239 18.9598 8.30393 18.968 8.28295C18.968 8.28295 19.0101 8.22272 19.0522 8.19888H19.1142C19.6992 8.19888 20.3596 8.19888 20.8773 7.80685C21.2296 7.53796 21.4705 7.14091 21.5779 6.65835C21.6058 6.54004 21.6263 6.39932 21.6263 6.25861C21.6263 6.07379 21.5903 5.89095 21.4861 5.74808C21.2221 5.36788 20.6964 5.36089 20.0896 5.35802C20.0876 5.35802 19.7904 5.36089 19.7904 5.36089C19.0136 5.37075 18.7021 5.36788 18.5741 5.35175C18.5633 5.41 18.5429 5.51361 18.5429 5.51361C18.5429 5.51361 18.2646 6.84119 18.2646 6.84334C18.2646 6.84334 17.5987 9.66592 17.5674 9.79893C18.2456 9.7905 18.5237 9.7905 18.6408 9.80377ZM19.1564 7.44546C19.1564 7.44546 19.4522 6.12058 19.4508 6.1256L19.4604 6.05766L19.4646 6.00585L19.5828 6.0184C19.5828 6.0184 20.193 6.07236 20.2073 6.07379C20.4481 6.16969 20.5474 6.41689 20.4781 6.73955C20.4148 7.03443 20.229 7.28234 19.9903 7.40208C19.7937 7.50354 19.5529 7.51197 19.3047 7.51197H19.1442L19.1564 7.44546ZM20.9984 8.58756C20.9203 8.93066 20.8304 9.55734 21.3875 9.7807C21.5651 9.85849 21.7242 9.88162 21.886 9.87319C22.0568 9.86369 22.2151 9.7755 22.3617 9.64858C22.3485 9.70075 22.3353 9.75291 22.322 9.80525L22.3473 9.83878C22.748 9.82139 22.8723 9.82139 23.3064 9.82479L23.3458 9.79396C23.4092 9.41035 23.4689 9.03786 23.6336 8.30398C23.7139 7.95246 23.794 7.60434 23.8764 7.25425L23.8635 7.21571C23.4153 7.30122 23.2955 7.3195 22.8643 7.38242L22.8316 7.40985C22.8272 7.44552 22.8227 7.47976 22.8185 7.51399C22.7515 7.4025 22.6543 7.30731 22.5044 7.24798C22.3126 7.17036 21.8623 7.27038 21.4752 7.6332C21.2032 7.89223 21.0726 8.24715 20.9984 8.58756ZM21.9398 8.60854C22.0358 8.18567 22.146 7.82787 22.4316 7.82787C22.6122 7.82787 22.7072 7.99942 22.6879 8.29197C22.6726 8.36493 22.656 8.44183 22.6364 8.52877C22.6078 8.65443 22.5768 8.77901 22.5467 8.90377C22.516 8.9891 22.4803 9.06958 22.4412 9.12318C22.3677 9.23038 22.1928 9.29688 22.0922 9.29688C22.0636 9.29688 21.8874 9.29688 21.8813 9.02943C21.8799 8.89624 21.9066 8.75911 21.9398 8.60854ZM26.8557 7.21229L26.8211 7.1716C26.3776 7.26409 26.2973 7.27879 25.8898 7.33544L25.8599 7.36627C25.8585 7.37129 25.8572 7.379 25.8552 7.38599L25.8538 7.379C25.5504 8.09943 25.5593 7.94401 25.3124 8.51118C25.311 8.48537 25.311 8.46924 25.3096 8.44181L25.2478 7.21229L25.2089 7.1716C24.7444 7.26409 24.7334 7.27879 24.3043 7.33544L24.2709 7.36627C24.2662 7.38097 24.2662 7.3971 24.2634 7.41467L24.2662 7.42094C24.3198 7.70309 24.3069 7.64017 24.3607 8.08545C24.3858 8.30396 24.4192 8.52373 24.4443 8.73955C24.4866 9.10076 24.5103 9.27858 24.562 9.8298C24.2723 10.322 24.2037 10.5083 23.9247 10.9403L23.9266 10.9446L23.7302 11.2644C23.7077 11.2981 23.6874 11.3212 23.6588 11.3311C23.6275 11.347 23.5867 11.3499 23.5301 11.3499H23.4213L23.2595 11.9038L23.8145 11.9137C24.1403 11.9122 24.3451 11.7554 24.4553 11.5446L24.8043 10.929H24.7987L24.8354 10.8856C25.0702 10.3654 26.8557 7.21229 26.8557 7.21229ZM20.9984 14.487H20.763L21.6344 11.5201H21.9234L22.0152 11.2145L22.0241 11.5543C22.0133 11.7644 22.1738 11.9507 22.5956 11.9198H23.0833L23.2512 11.3485H23.0677C22.9621 11.3485 22.9132 11.3211 22.9193 11.2623L22.9104 10.9165H22.0072V10.9183C21.7152 10.9246 20.8431 10.9472 20.6665 10.9956C20.4529 11.0522 20.2277 11.2189 20.2277 11.2189L20.3162 10.913H19.4713L19.2952 11.5201L18.4122 14.5323H18.2408L18.0728 15.0995H19.7556L19.6992 15.2886H20.5284L20.5835 15.0995H20.8161L20.9984 14.487ZM20.308 12.1229C20.1727 12.1615 19.9209 12.2784 19.9209 12.2784L20.1448 11.5201H20.8161L20.6542 12.0726C20.6542 12.0726 20.4468 12.0851 20.308 12.1229ZM20.3209 13.2062C20.3209 13.2062 20.11 13.2334 19.9712 13.2657C19.8345 13.3084 19.5782 13.4428 19.5782 13.4428L19.8094 12.6537H20.4842L20.3209 13.2062ZM19.9447 14.494H19.2714L19.4666 13.828H20.1378L19.9447 14.494ZM21.5664 12.6537H22.537L22.3975 13.1187H21.414L21.2664 13.6271H22.1269L21.4753 14.5716C21.4297 14.641 21.3888 14.6655 21.3433 14.6851C21.2977 14.7089 21.2378 14.7369 21.1685 14.7369H20.9297L20.7657 15.2936H21.3902C21.7148 15.2936 21.9065 15.1416 22.048 14.9421L22.4949 14.3126L22.5908 14.9518C22.6112 15.0715 22.6948 15.1416 22.7514 15.1689C22.8139 15.2011 22.8785 15.2565 22.9697 15.2648C23.0676 15.2691 23.1383 15.2725 23.1853 15.2725H23.4921L23.6764 14.6494H23.5554C23.4859 14.6494 23.3662 14.6374 23.3459 14.615C23.3255 14.5877 23.3255 14.5458 23.3145 14.482L23.2172 13.8413H22.8186L22.9934 13.6271H23.975L24.126 13.1187H23.2172L23.3588 12.6537H24.2648L24.4328 12.0803H21.7316L21.5664 12.6537ZM13.3684 14.6234L13.595 13.8476H14.5261L14.6962 13.2706H13.7642L13.9065 12.7931H14.8172L14.986 12.2343H12.7072L12.542 12.7931H13.0597L12.9216 13.2706H12.4025L12.2304 13.8575H12.748L12.446 14.8839C12.4053 15.0198 12.4652 15.0716 12.5031 15.1347C12.542 15.1962 12.5813 15.2369 12.6698 15.26C12.761 15.281 12.8235 15.2935 12.9085 15.2935H13.9582L14.1452 14.6543L13.6799 14.7201C13.5901 14.7201 13.3413 14.709 13.3684 14.6234ZM13.4752 10.9095L13.2393 11.3485C13.1888 11.4444 13.1433 11.5039 13.1024 11.5313C13.0663 11.5544 12.9949 11.5641 12.8915 11.5641H12.7684L12.6038 12.1257H13.0127C13.2093 12.1257 13.3603 12.0515 13.4324 12.0144C13.5099 11.9717 13.5302 11.9961 13.5901 11.9366L13.7282 11.8134H15.005L15.1744 11.2287H14.2398L14.403 10.9095H13.4752ZM15.3601 14.6347C15.3384 14.6025 15.354 14.5456 15.3873 14.4273L15.7363 13.2383H16.9777C17.1586 13.2356 17.2892 13.2335 17.3742 13.2272C17.4654 13.2173 17.5647 13.1838 17.6728 13.1236C17.7844 13.0605 17.8415 12.994 17.8898 12.9176C17.9436 12.8414 18.03 12.6747 18.1041 12.4177L18.5428 10.913L17.2545 10.9207C17.2545 10.9207 16.8579 10.9809 16.6832 11.0474C16.507 11.1216 16.2552 11.3289 16.2552 11.3289L16.3715 10.9164H15.5757L14.4616 14.72C14.4221 14.8678 14.3956 14.9749 14.3895 15.0393C14.3874 15.1087 14.4745 15.1773 14.5309 15.2291C14.5976 15.2809 14.6961 15.2725 14.7907 15.2809C14.8901 15.2886 15.0315 15.2935 15.2267 15.2935H15.8383L16.026 14.641L15.4785 14.6942C15.42 14.6942 15.3777 14.662 15.3601 14.6347ZM15.9614 12.4352H17.2653L17.1824 12.7027C17.1708 12.709 17.1429 12.6894 17.0102 12.7056H15.8811L15.9614 12.4352ZM16.2226 11.5382H17.5375L17.443 11.8604C17.443 11.8604 16.8232 11.8541 16.7239 11.8729C16.2872 11.9507 16.0321 12.1909 16.0321 12.1909L16.2226 11.5382ZM17.2116 13.5983C17.2008 13.6383 17.1838 13.6627 17.1599 13.6809C17.1334 13.6985 17.0906 13.7048 17.0267 13.7048H16.8409L16.8519 13.3791H16.0791L16.0477 14.9714C16.0465 15.0863 16.0573 15.1528 16.139 15.2061C16.2206 15.2726 16.4723 15.281 16.8109 15.281H17.2952L17.47 14.685L17.0485 14.7088L16.9083 14.7172C16.8891 14.7088 16.8708 14.7011 16.8505 14.6801C16.8327 14.662 16.8028 14.6731 16.8076 14.5582L16.8109 14.1501L17.2531 14.1312C17.4918 14.1312 17.5939 14.0513 17.6809 13.9751C17.764 13.9022 17.7912 13.8183 17.8225 13.7048L17.8967 13.3434H17.2891L17.2116 13.5983Z" fill="#FEFEFE"/>
</svg>
